<?xml version="1.0" standalone="no"?>
<!DOCTYPE svg PUBLIC "-//W3C//DTD SVG 1.1//EN" "http://www.w3.org/Graphics/SVG/1.1/DTD/svg11.dtd">
<svg width="184.9778394209356mm" height="172.4000000000001mm"
 viewBox="0 0 184.9778394209356 172.4000000000001"
 xmlns="http://www.w3.org/2000/svg" version="1.1"
 xmlns:xlink="http://www.w3.org/1999/xlink">
<desc>Output from Flights of Ideas SVG Sketchup Plugin</desc>

  <path id="face0-cut"
 style="fill:none;stroke:#0000FF;stroke-width:0.01;stroke-miterlimit:4;stroke-dasharray:none;stroke-linejoin:round;stroke-linecap:round"
        d="M 141.9822715367484,133.82500000000007 M 141.9822715367484,152.87500000000009 M 158.48005547884196,143.35000000000005 "
  />
  <path id="face1-cut"
 style="fill:none;stroke:#0000FF;stroke-width:0.01;stroke-miterlimit:4;stroke-dasharray:none;stroke-linejoin:round;stroke-linecap:round"
        d="M 174.9778394209356,76.67500000000004 L 174.97783942093548,57.62500000000014 M 158.48005547884202,67.15000000000005 "
  />
  <path id="face2-cut"
 style="fill:none;stroke:#0000FF;stroke-width:0.01;stroke-miterlimit:4;stroke-dasharray:none;stroke-linejoin:round;stroke-linecap:round"
        d="M 158.48005547884196,162.40000000000006 L 174.97783942093554,152.87500000000006 M 158.48005547884196,143.35000000000005 "
  />
  <path id="face3-cut"
 style="fill:none;stroke:#0000FF;stroke-width:0.01;stroke-miterlimit:4;stroke-dasharray:none;stroke-linejoin:round;stroke-linecap:round"
        d="M 174.9778394209356,76.67500000000004 M 158.48005547884202,67.15000000000005 M 141.98227153674844,76.67500000000004 M 141.98227153674844,95.72500000000007 M 158.48005547884196,105.25000000000006 M 174.9778394209356,95.72500000000002 L 174.9778394209356,76.67500000000004 "
  />
  <path id="face4-cut"
 style="fill:none;stroke:#0000FF;stroke-width:0.01;stroke-miterlimit:4;stroke-dasharray:none;stroke-linejoin:round;stroke-linecap:round"
        d="M 158.48005547884196,162.40000000000006 M 158.48005547884196,143.35000000000005 M 141.9822715367484,152.87500000000009 L 158.48005547884196,162.40000000000006 "
  />
  <path id="face5-cut"
 style="fill:none;stroke:#0000FF;stroke-width:0.01;stroke-miterlimit:4;stroke-dasharray:none;stroke-linejoin:round;stroke-linecap:round"
        d="M 141.98227153674844,38.575000000000045 M 141.98227153674844,57.625000000000064 M 158.48005547884202,48.10000000000008 "
  />
  <path id="face6-cut"
 style="fill:none;stroke:#0000FF;stroke-width:0.01;stroke-miterlimit:4;stroke-dasharray:none;stroke-linejoin:round;stroke-linecap:round"
        d="M 141.98227153674844,38.575000000000045 M 125.48448759465491,48.100000000000065 M 141.98227153674844,57.625000000000064 "
  />
  <path id="face7-cut"
 style="fill:none;stroke:#0000FF;stroke-width:0.01;stroke-miterlimit:4;stroke-dasharray:none;stroke-linejoin:round;stroke-linecap:round"
        d="M 125.48448759465491,48.100000000000065 M 125.4844875946549,67.15000000000008 M 141.98227153674844,57.625000000000064 "
  />
  <path id="face8-cut"
 style="fill:none;stroke:#0000FF;stroke-width:0.01;stroke-miterlimit:4;stroke-dasharray:none;stroke-linejoin:round;stroke-linecap:round"
        d="M 158.48005547884202,67.15000000000005 M 158.48005547884202,48.10000000000008 M 141.98227153674844,57.625000000000064 "
  />
  <path id="face9-cut"
 style="fill:none;stroke:#0000FF;stroke-width:0.01;stroke-miterlimit:4;stroke-dasharray:none;stroke-linejoin:round;stroke-linecap:round"
        d="M 174.97783942093554,19.525000000000045 L 158.48005547884202,10.0 L 141.98227153674847,19.525000000000045 M 141.98227153674844,38.575000000000045 M 158.48005547884202,48.10000000000008 M 174.97783942093548,38.57500000000003 L 174.97783942093554,19.525000000000045 "
  />
  <path id="face10-cut"
 style="fill:none;stroke:#0000FF;stroke-width:0.01;stroke-miterlimit:4;stroke-dasharray:none;stroke-linejoin:round;stroke-linecap:round"
        d="M 174.97783942093554,133.82500000000007 L 174.97783942093554,114.77500000000006 M 158.48005547884196,124.30000000000007 "
  />
  <path id="face11-cut"
 style="fill:none;stroke:#0000FF;stroke-width:0.01;stroke-miterlimit:4;stroke-dasharray:none;stroke-linejoin:round;stroke-linecap:round"
        d="M 174.97783942093554,114.77500000000006 L 174.9778394209356,95.72500000000002 M 158.48005547884196,105.25000000000006 "
  />
  <path id="face12-cut"
 style="fill:none;stroke:#0000FF;stroke-width:0.01;stroke-miterlimit:4;stroke-dasharray:none;stroke-linejoin:round;stroke-linecap:round"
        d="M 158.48005547884202,48.10000000000008 M 158.48005547884202,67.15000000000005 M 174.97783942093548,57.62500000000014 "
  />
  <path id="face13-cut"
 style="fill:none;stroke:#0000FF;stroke-width:0.01;stroke-miterlimit:4;stroke-dasharray:none;stroke-linejoin:round;stroke-linecap:round"
        d="M 174.97783942093548,38.57500000000003 M 158.48005547884202,48.10000000000008 M 174.97783942093548,57.62500000000014 L 174.97783942093548,38.57500000000003 "
  />
  <path id="face14-cut"
 style="fill:none;stroke:#0000FF;stroke-width:0.01;stroke-miterlimit:4;stroke-dasharray:none;stroke-linejoin:round;stroke-linecap:round"
        d="M 158.48005547884196,105.25000000000006 M 158.48005547884196,124.30000000000007 M 174.97783942093554,114.77500000000006 "
  />
  <path id="face15-cut"
 style="fill:none;stroke:#0000FF;stroke-width:0.01;stroke-miterlimit:4;stroke-dasharray:none;stroke-linejoin:round;stroke-linecap:round"
        d="M 158.48005547884196,124.30000000000007 M 141.9822715367484,133.82500000000007 M 158.48005547884196,143.35000000000005 "
  />
  <path id="face16-cut"
 style="fill:none;stroke:#0000FF;stroke-width:0.01;stroke-miterlimit:4;stroke-dasharray:none;stroke-linejoin:round;stroke-linecap:round"
        d="M 158.48005547884196,124.30000000000007 M 158.48005547884196,143.35000000000005 M 174.97783942093554,133.82500000000007 "
  />
  <path id="face17-cut"
 style="fill:none;stroke:#0000FF;stroke-width:0.01;stroke-miterlimit:4;stroke-dasharray:none;stroke-linejoin:round;stroke-linecap:round"
        d="M 174.97783942093554,152.87500000000006 L 174.97783942093554,133.82500000000007 M 158.48005547884196,143.35000000000005 "
  />
  <path id="face18-cut"
 style="fill:none;stroke:#0000FF;stroke-width:0.01;stroke-miterlimit:4;stroke-dasharray:none;stroke-linejoin:round;stroke-linecap:round"
        d="M 125.48448759465491,10.000000000000046 M 125.4844875946549,29.050000000000043 M 141.98227153674847,19.525000000000045 L 125.48448759465491,10.000000000000046 "
  />
  <path id="face19-cut"
 style="fill:none;stroke:#0000FF;stroke-width:0.01;stroke-miterlimit:4;stroke-dasharray:none;stroke-linejoin:round;stroke-linecap:round"
        d="M 125.48448759465491,10.000000000000046 L 108.98670365256136,19.525000000000066 M 125.4844875946549,29.050000000000043 "
  />
  <path id="face20-cut"
 style="fill:none;stroke:#0000FF;stroke-width:0.01;stroke-miterlimit:4;stroke-dasharray:none;stroke-linejoin:round;stroke-linecap:round"
        d="M 108.98670365256133,76.67500000000004 M 108.98670365256132,95.72500000000007 M 125.4844875946549,86.20000000000006 "
  />
  <path id="face21-cut"
 style="fill:none;stroke:#0000FF;stroke-width:0.01;stroke-miterlimit:4;stroke-dasharray:none;stroke-linejoin:round;stroke-linecap:round"
        d="M 125.4844875946549,105.25000000000004 M 125.4844875946549,86.20000000000006 M 108.98670365256132,95.72500000000007 "
  />
  <path id="face22-cut"
 style="fill:none;stroke:#0000FF;stroke-width:0.01;stroke-miterlimit:4;stroke-dasharray:none;stroke-linejoin:round;stroke-linecap:round"
        d="M 125.4844875946549,105.25000000000004 M 141.98227153674844,95.72500000000007 M 125.4844875946549,86.20000000000006 "
  />
  <path id="face23-cut"
 style="fill:none;stroke:#0000FF;stroke-width:0.01;stroke-miterlimit:4;stroke-dasharray:none;stroke-linejoin:round;stroke-linecap:round"
        d="M 141.98227153674844,95.72500000000007 M 141.98227153674844,76.67500000000004 M 125.4844875946549,86.20000000000006 "
  />
  <path id="face24-cut"
 style="fill:none;stroke:#0000FF;stroke-width:0.01;stroke-miterlimit:4;stroke-dasharray:none;stroke-linejoin:round;stroke-linecap:round"
        d="M 125.4844875946549,67.15000000000008 M 125.4844875946549,86.20000000000006 M 141.98227153674844,76.67500000000004 "
  />
  <path id="face25-cut"
 style="fill:none;stroke:#0000FF;stroke-width:0.01;stroke-miterlimit:4;stroke-dasharray:none;stroke-linejoin:round;stroke-linecap:round"
        d="M 125.4844875946549,67.15000000000008 M 108.98670365256133,76.67500000000004 M 125.4844875946549,86.20000000000006 "
  />
  <path id="face26-cut"
 style="fill:none;stroke:#0000FF;stroke-width:0.01;stroke-miterlimit:4;stroke-dasharray:none;stroke-linejoin:round;stroke-linecap:round"
        d="M 92.48891971046775,105.25000000000004 M 92.4889197104678,124.30000000000001 M 108.98670365256132,114.77500000000003 "
  />
  <path id="face27-cut"
 style="fill:none;stroke:#0000FF;stroke-width:0.01;stroke-miterlimit:4;stroke-dasharray:none;stroke-linejoin:round;stroke-linecap:round"
        d="M 108.98670365256133,133.82500000000007 M 108.98670365256132,114.77500000000003 M 92.4889197104678,124.30000000000001 "
  />
  <path id="face28-cut"
 style="fill:none;stroke:#0000FF;stroke-width:0.01;stroke-miterlimit:4;stroke-dasharray:none;stroke-linejoin:round;stroke-linecap:round"
        d="M 108.98670365256133,133.82500000000007 M 125.4844875946549,124.30000000000007 M 108.98670365256132,114.77500000000003 "
  />
  <path id="face29-cut"
 style="fill:none;stroke:#0000FF;stroke-width:0.01;stroke-miterlimit:4;stroke-dasharray:none;stroke-linejoin:round;stroke-linecap:round"
        d="M 125.4844875946549,124.30000000000007 M 125.4844875946549,105.25000000000004 M 108.98670365256132,114.77500000000003 "
  />
  <path id="face30-cut"
 style="fill:none;stroke:#0000FF;stroke-width:0.01;stroke-miterlimit:4;stroke-dasharray:none;stroke-linejoin:round;stroke-linecap:round"
        d="M 108.98670365256132,95.72500000000007 M 108.98670365256132,114.77500000000003 M 125.4844875946549,105.25000000000004 "
  />
  <path id="face31-cut"
 style="fill:none;stroke:#0000FF;stroke-width:0.01;stroke-miterlimit:4;stroke-dasharray:none;stroke-linejoin:round;stroke-linecap:round"
        d="M 108.98670365256132,95.72500000000007 M 92.48891971046775,105.25000000000004 M 108.98670365256132,114.77500000000003 "
  />
  <path id="face32-cut"
 style="fill:none;stroke:#0000FF;stroke-width:0.01;stroke-miterlimit:4;stroke-dasharray:none;stroke-linejoin:round;stroke-linecap:round"
        d="M 75.99113576837424,133.82500000000007 M 75.99113576837424,152.87500000000003 M 92.48891971046775,143.35000000000002 "
  />
  <path id="face33-cut"
 style="fill:none;stroke:#0000FF;stroke-width:0.01;stroke-miterlimit:4;stroke-dasharray:none;stroke-linejoin:round;stroke-linecap:round"
        d="M 92.48891971046774,162.4 M 92.48891971046775,143.35000000000002 M 75.99113576837424,152.87500000000003 L 92.48891971046774,162.4 "
  />
  <path id="face34-cut"
 style="fill:none;stroke:#0000FF;stroke-width:0.01;stroke-miterlimit:4;stroke-dasharray:none;stroke-linejoin:round;stroke-linecap:round"
        d="M 92.48891971046774,162.4 L 108.98670365256132,152.87500000000009 M 92.48891971046775,143.35000000000002 "
  />
  <path id="face35-cut"
 style="fill:none;stroke:#0000FF;stroke-width:0.01;stroke-miterlimit:4;stroke-dasharray:none;stroke-linejoin:round;stroke-linecap:round"
        d="M 108.98670365256132,152.87500000000009 M 108.98670365256133,133.82500000000007 M 92.48891971046775,143.35000000000002 "
  />
  <path id="face36-cut"
 style="fill:none;stroke:#0000FF;stroke-width:0.01;stroke-miterlimit:4;stroke-dasharray:none;stroke-linejoin:round;stroke-linecap:round"
        d="M 92.4889197104678,124.30000000000001 M 92.48891971046775,143.35000000000002 M 108.98670365256133,133.82500000000007 "
  />
  <path id="face37-cut"
 style="fill:none;stroke:#0000FF;stroke-width:0.01;stroke-miterlimit:4;stroke-dasharray:none;stroke-linejoin:round;stroke-linecap:round"
        d="M 92.4889197104678,124.30000000000001 M 75.99113576837424,133.82500000000007 M 92.48891971046775,143.35000000000002 "
  />
  <path id="face38-cut"
 style="fill:none;stroke:#0000FF;stroke-width:0.01;stroke-miterlimit:4;stroke-dasharray:none;stroke-linejoin:round;stroke-linecap:round"
        d="M 125.4844875946549,124.30000000000007 M 125.48448759465485,143.35000000000005 M 141.9822715367484,133.82500000000007 "
  />
  <path id="face39-cut"
 style="fill:none;stroke:#0000FF;stroke-width:0.01;stroke-miterlimit:4;stroke-dasharray:none;stroke-linejoin:round;stroke-linecap:round"
        d="M 125.4844875946549,124.30000000000007 M 108.98670365256133,133.82500000000007 M 125.48448759465485,143.35000000000005 "
  />
  <path id="face40-cut"
 style="fill:none;stroke:#0000FF;stroke-width:0.01;stroke-miterlimit:4;stroke-dasharray:none;stroke-linejoin:round;stroke-linecap:round"
        d="M 108.98670365256133,133.82500000000007 M 108.98670365256132,152.87500000000009 M 125.48448759465485,143.35000000000005 "
  />
  <path id="face41-cut"
 style="fill:none;stroke:#0000FF;stroke-width:0.01;stroke-miterlimit:4;stroke-dasharray:none;stroke-linejoin:round;stroke-linecap:round"
        d="M 125.48448759465485,162.4000000000001 M 125.48448759465485,143.35000000000005 M 108.98670365256132,152.87500000000009 L 125.48448759465485,162.4000000000001 "
  />
  <path id="face42-cut"
 style="fill:none;stroke:#0000FF;stroke-width:0.01;stroke-miterlimit:4;stroke-dasharray:none;stroke-linejoin:round;stroke-linecap:round"
        d="M 125.48448759465485,162.4000000000001 L 141.9822715367484,152.87500000000009 M 125.48448759465485,143.35000000000005 "
  />
  <path id="face43-cut"
 style="fill:none;stroke:#0000FF;stroke-width:0.01;stroke-miterlimit:4;stroke-dasharray:none;stroke-linejoin:round;stroke-linecap:round"
        d="M 141.9822715367484,152.87500000000009 M 141.9822715367484,133.82500000000007 M 125.48448759465485,143.35000000000005 "
  />
  <path id="face44-cut"
 style="fill:none;stroke:#0000FF;stroke-width:0.01;stroke-miterlimit:4;stroke-dasharray:none;stroke-linejoin:round;stroke-linecap:round"
        d="M 125.4844875946549,105.25000000000004 M 125.4844875946549,124.30000000000007 M 141.9822715367484,114.77500000000003 "
  />
  <path id="face45-cut"
 style="fill:none;stroke:#0000FF;stroke-width:0.01;stroke-miterlimit:4;stroke-dasharray:none;stroke-linejoin:round;stroke-linecap:round"
        d="M 141.98227153674844,95.72500000000007 M 141.9822715367484,114.77500000000003 M 158.48005547884196,105.25000000000006 "
  />
  <path id="face46-cut"
 style="fill:none;stroke:#0000FF;stroke-width:0.01;stroke-miterlimit:4;stroke-dasharray:none;stroke-linejoin:round;stroke-linecap:round"
        d="M 141.9822715367484,133.82500000000007 M 141.9822715367484,114.77500000000003 M 125.4844875946549,124.30000000000007 "
  />
  <path id="face47-cut"
 style="fill:none;stroke:#0000FF;stroke-width:0.01;stroke-miterlimit:4;stroke-dasharray:none;stroke-linejoin:round;stroke-linecap:round"
        d="M 141.9822715367484,133.82500000000007 M 158.48005547884196,124.30000000000007 M 141.9822715367484,114.77500000000003 "
  />
  <path id="face48-cut"
 style="fill:none;stroke:#0000FF;stroke-width:0.01;stroke-miterlimit:4;stroke-dasharray:none;stroke-linejoin:round;stroke-linecap:round"
        d="M 158.48005547884196,124.30000000000007 M 158.48005547884196,105.25000000000006 M 141.9822715367484,114.77500000000003 "
  />
  <path id="face49-cut"
 style="fill:none;stroke:#0000FF;stroke-width:0.01;stroke-miterlimit:4;stroke-dasharray:none;stroke-linejoin:round;stroke-linecap:round"
        d="M 141.98227153674844,95.72500000000007 M 125.4844875946549,105.25000000000004 M 141.9822715367484,114.77500000000003 "
  />
  <path id="face50-cut"
 style="fill:none;stroke:#0000FF;stroke-width:0.01;stroke-miterlimit:4;stroke-dasharray:none;stroke-linejoin:round;stroke-linecap:round"
        d="M 141.98227153674844,76.67500000000004 M 158.48005547884202,67.15000000000005 M 141.98227153674844,57.625000000000064 "
  />
  <path id="face51-cut"
 style="fill:none;stroke:#0000FF;stroke-width:0.01;stroke-miterlimit:4;stroke-dasharray:none;stroke-linejoin:round;stroke-linecap:round"
        d="M 141.98227153674844,76.67500000000004 M 141.98227153674844,57.625000000000064 M 125.4844875946549,67.15000000000008 "
  />
  <path id="face52-cut"
 style="fill:none;stroke:#0000FF;stroke-width:0.01;stroke-miterlimit:4;stroke-dasharray:none;stroke-linejoin:round;stroke-linecap:round"
        d="M 141.98227153674844,38.575000000000045 M 141.98227153674847,19.525000000000045 M 125.4844875946549,29.050000000000043 "
  />
  <path id="face53-cut"
 style="fill:none;stroke:#0000FF;stroke-width:0.01;stroke-miterlimit:4;stroke-dasharray:none;stroke-linejoin:round;stroke-linecap:round"
        d="M 125.48448759465491,48.100000000000065 M 141.98227153674844,38.575000000000045 M 125.4844875946549,29.050000000000043 "
  />
  <path id="face54-cut"
 style="fill:none;stroke:#0000FF;stroke-width:0.01;stroke-miterlimit:4;stroke-dasharray:none;stroke-linejoin:round;stroke-linecap:round"
        d="M 125.48448759465491,48.100000000000065 M 125.4844875946549,29.050000000000043 M 108.98670365256137,38.57500000000003 "
  />
  <path id="face55-cut"
 style="fill:none;stroke:#0000FF;stroke-width:0.01;stroke-miterlimit:4;stroke-dasharray:none;stroke-linejoin:round;stroke-linecap:round"
        d="M 108.98670365256137,38.57500000000003 M 92.48891971046785,48.100000000000044 M 108.98670365256133,57.62500000000004 "
  />
  <path id="face56-cut"
 style="fill:none;stroke:#0000FF;stroke-width:0.01;stroke-miterlimit:4;stroke-dasharray:none;stroke-linejoin:round;stroke-linecap:round"
        d="M 108.98670365256136,19.525000000000066 M 108.98670365256137,38.57500000000003 M 125.4844875946549,29.050000000000043 "
  />
  <path id="face57-cut"
 style="fill:none;stroke:#0000FF;stroke-width:0.01;stroke-miterlimit:4;stroke-dasharray:none;stroke-linejoin:round;stroke-linecap:round"
        d="M 108.98670365256137,38.57500000000003 M 108.98670365256133,57.62500000000004 M 125.48448759465491,48.100000000000065 "
  />
  <path id="face58-cut"
 style="fill:none;stroke:#0000FF;stroke-width:0.01;stroke-miterlimit:4;stroke-dasharray:none;stroke-linejoin:round;stroke-linecap:round"
        d="M 125.4844875946549,67.15000000000008 M 125.48448759465491,48.100000000000065 M 108.98670365256133,57.62500000000004 "
  />
  <path id="face59-cut"
 style="fill:none;stroke:#0000FF;stroke-width:0.01;stroke-miterlimit:4;stroke-dasharray:none;stroke-linejoin:round;stroke-linecap:round"
        d="M 108.98670365256133,76.67500000000004 M 108.98670365256133,57.62500000000004 M 92.48891971046774,67.15000000000008 "
  />
  <path id="face60-cut"
 style="fill:none;stroke:#0000FF;stroke-width:0.01;stroke-miterlimit:4;stroke-dasharray:none;stroke-linejoin:round;stroke-linecap:round"
        d="M 108.98670365256133,76.67500000000004 M 125.4844875946549,67.15000000000008 M 108.98670365256133,57.62500000000004 "
  />
  <path id="face61-cut"
 style="fill:none;stroke:#0000FF;stroke-width:0.01;stroke-miterlimit:4;stroke-dasharray:none;stroke-linejoin:round;stroke-linecap:round"
        d="M 92.48891971046785,48.100000000000044 M 92.48891971046774,67.15000000000008 M 108.98670365256133,57.62500000000004 "
  />
  <path id="face62-cut"
 style="fill:none;stroke:#0000FF;stroke-width:0.01;stroke-miterlimit:4;stroke-dasharray:none;stroke-linejoin:round;stroke-linecap:round"
        d="M 92.4889197104678,10.000000000000046 L 75.99113576837428,19.525000000000045 M 92.48891971046781,29.050000000000022 "
  />
  <path id="face63-cut"
 style="fill:none;stroke:#0000FF;stroke-width:0.01;stroke-miterlimit:4;stroke-dasharray:none;stroke-linejoin:round;stroke-linecap:round"
        d="M 108.98670365256137,38.57500000000003 M 108.98670365256136,19.525000000000066 M 92.48891971046781,29.050000000000022 "
  />
  <path id="face64-cut"
 style="fill:none;stroke:#0000FF;stroke-width:0.01;stroke-miterlimit:4;stroke-dasharray:none;stroke-linejoin:round;stroke-linecap:round"
        d="M 92.4889197104678,10.000000000000046 M 92.48891971046781,29.050000000000022 M 108.98670365256136,19.525000000000066 L 92.4889197104678,10.000000000000046 "
  />
  <path id="face65-cut"
 style="fill:none;stroke:#0000FF;stroke-width:0.01;stroke-miterlimit:4;stroke-dasharray:none;stroke-linejoin:round;stroke-linecap:round"
        d="M 92.48891971046785,48.100000000000044 M 108.98670365256137,38.57500000000003 M 92.48891971046781,29.050000000000022 "
  />
  <path id="face66-cut"
 style="fill:none;stroke:#0000FF;stroke-width:0.01;stroke-miterlimit:4;stroke-dasharray:none;stroke-linejoin:round;stroke-linecap:round"
        d="M 92.48891971046785,48.100000000000044 M 92.48891971046781,29.050000000000022 M 75.99113576837426,38.575000000000045 "
  />
  <path id="face67-cut"
 style="fill:none;stroke:#0000FF;stroke-width:0.01;stroke-miterlimit:4;stroke-dasharray:none;stroke-linejoin:round;stroke-linecap:round"
        d="M 75.9911357683742,76.67500000000004 M 75.9911357683742,95.72500000000004 M 92.48891971046777,86.20000000000003 "
  />
  <path id="face68-cut"
 style="fill:none;stroke:#0000FF;stroke-width:0.01;stroke-miterlimit:4;stroke-dasharray:none;stroke-linejoin:round;stroke-linecap:round"
        d="M 75.99113576837428,19.525000000000045 M 75.99113576837426,38.575000000000045 M 92.48891971046781,29.050000000000022 "
  />
  <path id="face69-cut"
 style="fill:none;stroke:#0000FF;stroke-width:0.01;stroke-miterlimit:4;stroke-dasharray:none;stroke-linejoin:round;stroke-linecap:round"
        d="M 108.98670365256132,95.72500000000007 M 108.98670365256133,76.67500000000004 M 92.48891971046777,86.20000000000003 "
  />
  <path id="face70-cut"
 style="fill:none;stroke:#0000FF;stroke-width:0.01;stroke-miterlimit:4;stroke-dasharray:none;stroke-linejoin:round;stroke-linecap:round"
        d="M 92.48891971046774,67.15000000000008 M 92.48891971046777,86.20000000000003 M 108.98670365256133,76.67500000000004 "
  />
  <path id="face71-cut"
 style="fill:none;stroke:#0000FF;stroke-width:0.01;stroke-miterlimit:4;stroke-dasharray:none;stroke-linejoin:round;stroke-linecap:round"
        d="M 92.48891971046775,105.25000000000004 M 108.98670365256132,95.72500000000007 M 92.48891971046777,86.20000000000003 "
  />
  <path id="face72-cut"
 style="fill:none;stroke:#0000FF;stroke-width:0.01;stroke-miterlimit:4;stroke-dasharray:none;stroke-linejoin:round;stroke-linecap:round"
        d="M 42.995567884187096,133.82500000000007 M 26.497783942093562,124.30000000000011 L 10.0,133.82500000000007 L 10.0,152.87499999999994 L 26.497783942093562,162.39999999999998 L 42.99556788418711,152.8750000000001 "
  />
  <path id="face73-cut"
 style="fill:none;stroke:#0000FF;stroke-width:0.01;stroke-miterlimit:4;stroke-dasharray:none;stroke-linejoin:round;stroke-linecap:round"
        d="M 92.48891971046774,67.15000000000008 M 75.9911357683742,76.67500000000004 M 92.48891971046777,86.20000000000003 "
  />
  <path id="face74-cut"
 style="fill:none;stroke:#0000FF;stroke-width:0.01;stroke-miterlimit:4;stroke-dasharray:none;stroke-linejoin:round;stroke-linecap:round"
        d="M 92.48891971046775,105.25000000000004 M 92.48891971046777,86.20000000000003 M 75.9911357683742,95.72500000000004 "
  />
  <path id="face75-cut"
 style="fill:none;stroke:#0000FF;stroke-width:0.01;stroke-miterlimit:4;stroke-dasharray:none;stroke-linejoin:round;stroke-linecap:round"
        d="M 59.49335182628067,105.25000000000004 M 42.99556788418708,95.72500000000007 M 26.497783942093562,105.25000000000004 L 26.497783942093562,124.30000000000011 M 42.995567884187096,133.82500000000007 M 59.49335182628067,124.30000000000007 "
  />
  <path id="face76-cut"
 style="fill:none;stroke:#0000FF;stroke-width:0.01;stroke-miterlimit:4;stroke-dasharray:none;stroke-linejoin:round;stroke-linecap:round"
        d="M 42.995567884187096,76.67500000000003 M 26.497783942093562,67.15000000000003 L 10.0,76.67500000000005 L 10.0,95.72500000000004 L 26.497783942093562,105.25000000000004 M 42.99556788418708,95.72500000000007 "
  />
  <path id="face77-cut"
 style="fill:none;stroke:#0000FF;stroke-width:0.01;stroke-miterlimit:4;stroke-dasharray:none;stroke-linejoin:round;stroke-linecap:round"
        d="M 59.4933518262807,48.100000000000044 M 42.99556788418712,38.574999999999996 M 26.49778394209354,48.100000000000044 L 26.497783942093562,67.15000000000003 M 42.995567884187096,76.67500000000003 M 59.49335182628071,67.15000000000003 "
  />
  <path id="face78-cut"
 style="fill:none;stroke:#0000FF;stroke-width:0.01;stroke-miterlimit:4;stroke-dasharray:none;stroke-linejoin:round;stroke-linecap:round"
        d="M 42.99556788418712,19.525000000000045 L 26.497783942093562,10.000000000000046 L 10.0,19.525000000000023 L 10.0,38.57500000000008 L 26.49778394209354,48.100000000000044 M 42.99556788418712,38.574999999999996 "
  />
  <path id="face79-cut"
 style="fill:none;stroke:#0000FF;stroke-width:0.01;stroke-miterlimit:4;stroke-dasharray:none;stroke-linejoin:round;stroke-linecap:round"
        d="M 75.99113576837428,19.525000000000045 L 59.493351826280715,10.000000000000023 L 42.99556788418712,19.525000000000045 M 42.99556788418712,38.574999999999996 M 59.4933518262807,48.100000000000044 M 75.99113576837426,38.575000000000045 "
  />
  <path id="face80-cut"
 style="fill:none;stroke:#0000FF;stroke-width:0.01;stroke-miterlimit:4;stroke-dasharray:none;stroke-linejoin:round;stroke-linecap:round"
        d="M 92.48891971046785,48.100000000000044 M 75.99113576837426,38.575000000000045 M 59.4933518262807,48.100000000000044 M 59.49335182628071,67.15000000000003 M 75.9911357683742,76.67500000000004 M 92.48891971046774,67.15000000000008 "
  />
  <path id="face81-cut"
 style="fill:none;stroke:#0000FF;stroke-width:0.01;stroke-miterlimit:4;stroke-dasharray:none;stroke-linejoin:round;stroke-linecap:round"
        d="M 75.9911357683742,76.67500000000004 M 59.49335182628071,67.15000000000003 M 42.995567884187096,76.67500000000003 M 42.99556788418708,95.72500000000007 M 59.49335182628067,105.25000000000004 M 75.9911357683742,95.72500000000004 "
  />
  <path id="face82-cut"
 style="fill:none;stroke:#0000FF;stroke-width:0.01;stroke-miterlimit:4;stroke-dasharray:none;stroke-linejoin:round;stroke-linecap:round"
        d="M 75.99113576837424,133.82500000000007 M 59.49335182628067,124.30000000000007 M 42.995567884187096,133.82500000000007 M 42.99556788418711,152.8750000000001 L 59.4933518262807,162.4 L 75.99113576837424,152.87500000000003 "
  />
  <path id="face83-cut"
 style="fill:none;stroke:#0000FF;stroke-width:0.01;stroke-miterlimit:4;stroke-dasharray:none;stroke-linejoin:round;stroke-linecap:round"
        d="M 92.48891971046775,105.25000000000004 M 75.9911357683742,95.72500000000004 M 59.49335182628067,105.25000000000004 M 59.49335182628067,124.30000000000007 M 75.99113576837424,133.82500000000007 M 92.4889197104678,124.30000000000001 "
  />
  <path id="face0-interior"
 style="fill:none;stroke:#0000FF;stroke-width:0.01;stroke-miterlimit:4;stroke-dasharray:none;stroke-linejoin:round;stroke-linecap:round"
        d="M 141.9822715367484,133.82500000000007 L 141.9822715367484,152.87500000000009 L 158.48005547884196,143.35000000000005 L 141.9822715367484,133.82500000000007 "
  />
  <path id="face1-interior"
 style="fill:none;stroke:#0000FF;stroke-width:0.01;stroke-miterlimit:4;stroke-dasharray:none;stroke-linejoin:round;stroke-linecap:round"
        d="M 174.9778394209356,76.67500000000004 M 174.97783942093548,57.62500000000014 L 158.48005547884202,67.15000000000005 L 174.9778394209356,76.67500000000004 "
  />
  <path id="face2-interior"
 style="fill:none;stroke:#0000FF;stroke-width:0.01;stroke-miterlimit:4;stroke-dasharray:none;stroke-linejoin:round;stroke-linecap:round"
        d="M 158.48005547884196,162.40000000000006 M 174.97783942093554,152.87500000000006 L 158.48005547884196,143.35000000000005 L 158.48005547884196,162.40000000000006 "
  />
  <path id="face3-interior"
 style="fill:none;stroke:#0000FF;stroke-width:0.01;stroke-miterlimit:4;stroke-dasharray:none;stroke-linejoin:round;stroke-linecap:round"
        d="M 174.9778394209356,76.67500000000004 M 158.48005547884202,67.15000000000005 L 141.98227153674844,76.67500000000004 L 141.98227153674844,95.72500000000007 L 158.48005547884196,105.25000000000006 L 174.9778394209356,95.72500000000002 "
  />
  <path id="face4-interior"
 style="fill:none;stroke:#0000FF;stroke-width:0.01;stroke-miterlimit:4;stroke-dasharray:none;stroke-linejoin:round;stroke-linecap:round"
        d="M 158.48005547884196,162.40000000000006 M 158.48005547884196,143.35000000000005 M 141.9822715367484,152.87500000000009 "
  />
  <path id="face5-interior"
 style="fill:none;stroke:#0000FF;stroke-width:0.01;stroke-miterlimit:4;stroke-dasharray:none;stroke-linejoin:round;stroke-linecap:round"
        d="M 141.98227153674844,38.575000000000045 L 141.98227153674844,57.625000000000064 L 158.48005547884202,48.10000000000008 L 141.98227153674844,38.575000000000045 "
  />
  <path id="face6-interior"
 style="fill:none;stroke:#0000FF;stroke-width:0.01;stroke-miterlimit:4;stroke-dasharray:none;stroke-linejoin:round;stroke-linecap:round"
        d="M 141.98227153674844,38.575000000000045 L 125.48448759465491,48.100000000000065 L 141.98227153674844,57.625000000000064 "
  />
  <path id="face7-interior"
 style="fill:none;stroke:#0000FF;stroke-width:0.01;stroke-miterlimit:4;stroke-dasharray:none;stroke-linejoin:round;stroke-linecap:round"
        d="M 125.48448759465491,48.100000000000065 L 125.4844875946549,67.15000000000008 L 141.98227153674844,57.625000000000064 "
  />
  <path id="face8-interior"
 style="fill:none;stroke:#0000FF;stroke-width:0.01;stroke-miterlimit:4;stroke-dasharray:none;stroke-linejoin:round;stroke-linecap:round"
        d="M 158.48005547884202,67.15000000000005 L 158.48005547884202,48.10000000000008 M 141.98227153674844,57.625000000000064 L 158.48005547884202,67.15000000000005 "
  />
  <path id="face9-interior"
 style="fill:none;stroke:#0000FF;stroke-width:0.01;stroke-miterlimit:4;stroke-dasharray:none;stroke-linejoin:round;stroke-linecap:round"
        d="M 174.97783942093554,19.525000000000045 M 158.48005547884202,10.0 M 141.98227153674847,19.525000000000045 L 141.98227153674844,38.575000000000045 M 158.48005547884202,48.10000000000008 L 174.97783942093548,38.57500000000003 "
  />
  <path id="face10-interior"
 style="fill:none;stroke:#0000FF;stroke-width:0.01;stroke-miterlimit:4;stroke-dasharray:none;stroke-linejoin:round;stroke-linecap:round"
        d="M 174.97783942093554,133.82500000000007 M 174.97783942093554,114.77500000000006 L 158.48005547884196,124.30000000000007 L 174.97783942093554,133.82500000000007 "
  />
  <path id="face11-interior"
 style="fill:none;stroke:#0000FF;stroke-width:0.01;stroke-miterlimit:4;stroke-dasharray:none;stroke-linejoin:round;stroke-linecap:round"
        d="M 174.97783942093554,114.77500000000006 M 174.9778394209356,95.72500000000002 M 158.48005547884196,105.25000000000006 L 174.97783942093554,114.77500000000006 "
  />
  <path id="face12-interior"
 style="fill:none;stroke:#0000FF;stroke-width:0.01;stroke-miterlimit:4;stroke-dasharray:none;stroke-linejoin:round;stroke-linecap:round"
        d="M 158.48005547884202,48.10000000000008 M 158.48005547884202,67.15000000000005 M 174.97783942093548,57.62500000000014 L 158.48005547884202,48.10000000000008 "
  />
  <path id="face13-interior"
 style="fill:none;stroke:#0000FF;stroke-width:0.01;stroke-miterlimit:4;stroke-dasharray:none;stroke-linejoin:round;stroke-linecap:round"
        d="M 174.97783942093548,38.57500000000003 M 158.48005547884202,48.10000000000008 M 174.97783942093548,57.62500000000014 "
  />
  <path id="face14-interior"
 style="fill:none;stroke:#0000FF;stroke-width:0.01;stroke-miterlimit:4;stroke-dasharray:none;stroke-linejoin:round;stroke-linecap:round"
        d="M 158.48005547884196,105.25000000000006 L 158.48005547884196,124.30000000000007 M 174.97783942093554,114.77500000000006 "
  />
  <path id="face15-interior"
 style="fill:none;stroke:#0000FF;stroke-width:0.01;stroke-miterlimit:4;stroke-dasharray:none;stroke-linejoin:round;stroke-linecap:round"
        d="M 158.48005547884196,124.30000000000007 L 141.9822715367484,133.82500000000007 M 158.48005547884196,143.35000000000005 L 158.48005547884196,124.30000000000007 "
  />
  <path id="face16-interior"
 style="fill:none;stroke:#0000FF;stroke-width:0.01;stroke-miterlimit:4;stroke-dasharray:none;stroke-linejoin:round;stroke-linecap:round"
        d="M 158.48005547884196,124.30000000000007 M 158.48005547884196,143.35000000000005 L 174.97783942093554,133.82500000000007 "
  />
  <path id="face17-interior"
 style="fill:none;stroke:#0000FF;stroke-width:0.01;stroke-miterlimit:4;stroke-dasharray:none;stroke-linejoin:round;stroke-linecap:round"
        d="M 174.97783942093554,152.87500000000006 M 174.97783942093554,133.82500000000007 M 158.48005547884196,143.35000000000005 "
  />
  <path id="face18-interior"
 style="fill:none;stroke:#0000FF;stroke-width:0.01;stroke-miterlimit:4;stroke-dasharray:none;stroke-linejoin:round;stroke-linecap:round"
        d="M 125.48448759465491,10.000000000000046 L 125.4844875946549,29.050000000000043 L 141.98227153674847,19.525000000000045 "
  />
  <path id="face19-interior"
 style="fill:none;stroke:#0000FF;stroke-width:0.01;stroke-miterlimit:4;stroke-dasharray:none;stroke-linejoin:round;stroke-linecap:round"
        d="M 125.48448759465491,10.000000000000046 M 108.98670365256136,19.525000000000066 L 125.4844875946549,29.050000000000043 "
  />
  <path id="face20-interior"
 style="fill:none;stroke:#0000FF;stroke-width:0.01;stroke-miterlimit:4;stroke-dasharray:none;stroke-linejoin:round;stroke-linecap:round"
        d="M 108.98670365256133,76.67500000000004 L 108.98670365256132,95.72500000000007 L 125.4844875946549,86.20000000000006 L 108.98670365256133,76.67500000000004 "
  />
  <path id="face21-interior"
 style="fill:none;stroke:#0000FF;stroke-width:0.01;stroke-miterlimit:4;stroke-dasharray:none;stroke-linejoin:round;stroke-linecap:round"
        d="M 125.4844875946549,105.25000000000004 L 125.4844875946549,86.20000000000006 M 108.98670365256132,95.72500000000007 L 125.4844875946549,105.25000000000004 "
  />
  <path id="face22-interior"
 style="fill:none;stroke:#0000FF;stroke-width:0.01;stroke-miterlimit:4;stroke-dasharray:none;stroke-linejoin:round;stroke-linecap:round"
        d="M 125.4844875946549,105.25000000000004 L 141.98227153674844,95.72500000000007 L 125.4844875946549,86.20000000000006 "
  />
  <path id="face23-interior"
 style="fill:none;stroke:#0000FF;stroke-width:0.01;stroke-miterlimit:4;stroke-dasharray:none;stroke-linejoin:round;stroke-linecap:round"
        d="M 141.98227153674844,95.72500000000007 M 141.98227153674844,76.67500000000004 L 125.4844875946549,86.20000000000006 "
  />
  <path id="face24-interior"
 style="fill:none;stroke:#0000FF;stroke-width:0.01;stroke-miterlimit:4;stroke-dasharray:none;stroke-linejoin:round;stroke-linecap:round"
        d="M 125.4844875946549,67.15000000000008 L 125.4844875946549,86.20000000000006 M 141.98227153674844,76.67500000000004 L 125.4844875946549,67.15000000000008 "
  />
  <path id="face25-interior"
 style="fill:none;stroke:#0000FF;stroke-width:0.01;stroke-miterlimit:4;stroke-dasharray:none;stroke-linejoin:round;stroke-linecap:round"
        d="M 125.4844875946549,67.15000000000008 L 108.98670365256133,76.67500000000004 M 125.4844875946549,86.20000000000006 "
  />
  <path id="face26-interior"
 style="fill:none;stroke:#0000FF;stroke-width:0.01;stroke-miterlimit:4;stroke-dasharray:none;stroke-linejoin:round;stroke-linecap:round"
        d="M 92.48891971046775,105.25000000000004 L 92.4889197104678,124.30000000000001 L 108.98670365256132,114.77500000000003 L 92.48891971046775,105.25000000000004 "
  />
  <path id="face27-interior"
 style="fill:none;stroke:#0000FF;stroke-width:0.01;stroke-miterlimit:4;stroke-dasharray:none;stroke-linejoin:round;stroke-linecap:round"
        d="M 108.98670365256133,133.82500000000007 L 108.98670365256132,114.77500000000003 M 92.4889197104678,124.30000000000001 L 108.98670365256133,133.82500000000007 "
  />
  <path id="face28-interior"
 style="fill:none;stroke:#0000FF;stroke-width:0.01;stroke-miterlimit:4;stroke-dasharray:none;stroke-linejoin:round;stroke-linecap:round"
        d="M 108.98670365256133,133.82500000000007 L 125.4844875946549,124.30000000000007 L 108.98670365256132,114.77500000000003 "
  />
  <path id="face29-interior"
 style="fill:none;stroke:#0000FF;stroke-width:0.01;stroke-miterlimit:4;stroke-dasharray:none;stroke-linejoin:round;stroke-linecap:round"
        d="M 125.4844875946549,124.30000000000007 L 125.4844875946549,105.25000000000004 L 108.98670365256132,114.77500000000003 "
  />
  <path id="face30-interior"
 style="fill:none;stroke:#0000FF;stroke-width:0.01;stroke-miterlimit:4;stroke-dasharray:none;stroke-linejoin:round;stroke-linecap:round"
        d="M 108.98670365256132,95.72500000000007 L 108.98670365256132,114.77500000000003 M 125.4844875946549,105.25000000000004 "
  />
  <path id="face31-interior"
 style="fill:none;stroke:#0000FF;stroke-width:0.01;stroke-miterlimit:4;stroke-dasharray:none;stroke-linejoin:round;stroke-linecap:round"
        d="M 108.98670365256132,95.72500000000007 L 92.48891971046775,105.25000000000004 M 108.98670365256132,114.77500000000003 "
  />
  <path id="face32-interior"
 style="fill:none;stroke:#0000FF;stroke-width:0.01;stroke-miterlimit:4;stroke-dasharray:none;stroke-linejoin:round;stroke-linecap:round"
        d="M 75.99113576837424,133.82500000000007 L 75.99113576837424,152.87500000000003 L 92.48891971046775,143.35000000000002 L 75.99113576837424,133.82500000000007 "
  />
  <path id="face33-interior"
 style="fill:none;stroke:#0000FF;stroke-width:0.01;stroke-miterlimit:4;stroke-dasharray:none;stroke-linejoin:round;stroke-linecap:round"
        d="M 92.48891971046774,162.4 L 92.48891971046775,143.35000000000002 M 75.99113576837424,152.87500000000003 "
  />
  <path id="face34-interior"
 style="fill:none;stroke:#0000FF;stroke-width:0.01;stroke-miterlimit:4;stroke-dasharray:none;stroke-linejoin:round;stroke-linecap:round"
        d="M 92.48891971046774,162.4 M 108.98670365256132,152.87500000000009 L 92.48891971046775,143.35000000000002 "
  />
  <path id="face35-interior"
 style="fill:none;stroke:#0000FF;stroke-width:0.01;stroke-miterlimit:4;stroke-dasharray:none;stroke-linejoin:round;stroke-linecap:round"
        d="M 108.98670365256132,152.87500000000009 L 108.98670365256133,133.82500000000007 L 92.48891971046775,143.35000000000002 "
  />
  <path id="face36-interior"
 style="fill:none;stroke:#0000FF;stroke-width:0.01;stroke-miterlimit:4;stroke-dasharray:none;stroke-linejoin:round;stroke-linecap:round"
        d="M 92.4889197104678,124.30000000000001 L 92.48891971046775,143.35000000000002 M 108.98670365256133,133.82500000000007 "
  />
  <path id="face37-interior"
 style="fill:none;stroke:#0000FF;stroke-width:0.01;stroke-miterlimit:4;stroke-dasharray:none;stroke-linejoin:round;stroke-linecap:round"
        d="M 92.4889197104678,124.30000000000001 L 75.99113576837424,133.82500000000007 M 92.48891971046775,143.35000000000002 "
  />
  <path id="face38-interior"
 style="fill:none;stroke:#0000FF;stroke-width:0.01;stroke-miterlimit:4;stroke-dasharray:none;stroke-linejoin:round;stroke-linecap:round"
        d="M 125.4844875946549,124.30000000000007 L 125.48448759465485,143.35000000000005 L 141.9822715367484,133.82500000000007 L 125.4844875946549,124.30000000000007 "
  />
  <path id="face39-interior"
 style="fill:none;stroke:#0000FF;stroke-width:0.01;stroke-miterlimit:4;stroke-dasharray:none;stroke-linejoin:round;stroke-linecap:round"
        d="M 125.4844875946549,124.30000000000007 M 108.98670365256133,133.82500000000007 L 125.48448759465485,143.35000000000005 "
  />
  <path id="face40-interior"
 style="fill:none;stroke:#0000FF;stroke-width:0.01;stroke-miterlimit:4;stroke-dasharray:none;stroke-linejoin:round;stroke-linecap:round"
        d="M 108.98670365256133,133.82500000000007 M 108.98670365256132,152.87500000000009 L 125.48448759465485,143.35000000000005 "
  />
  <path id="face41-interior"
 style="fill:none;stroke:#0000FF;stroke-width:0.01;stroke-miterlimit:4;stroke-dasharray:none;stroke-linejoin:round;stroke-linecap:round"
        d="M 125.48448759465485,162.4000000000001 L 125.48448759465485,143.35000000000005 M 108.98670365256132,152.87500000000009 "
  />
  <path id="face42-interior"
 style="fill:none;stroke:#0000FF;stroke-width:0.01;stroke-miterlimit:4;stroke-dasharray:none;stroke-linejoin:round;stroke-linecap:round"
        d="M 125.48448759465485,162.4000000000001 M 141.9822715367484,152.87500000000009 L 125.48448759465485,143.35000000000005 "
  />
  <path id="face43-interior"
 style="fill:none;stroke:#0000FF;stroke-width:0.01;stroke-miterlimit:4;stroke-dasharray:none;stroke-linejoin:round;stroke-linecap:round"
        d="M 141.9822715367484,152.87500000000009 M 141.9822715367484,133.82500000000007 M 125.48448759465485,143.35000000000005 "
  />
  <path id="face44-interior"
 style="fill:none;stroke:#0000FF;stroke-width:0.01;stroke-miterlimit:4;stroke-dasharray:none;stroke-linejoin:round;stroke-linecap:round"
        d="M 125.4844875946549,105.25000000000004 M 125.4844875946549,124.30000000000007 L 141.9822715367484,114.77500000000003 L 125.4844875946549,105.25000000000004 "
  />
  <path id="face45-interior"
 style="fill:none;stroke:#0000FF;stroke-width:0.01;stroke-miterlimit:4;stroke-dasharray:none;stroke-linejoin:round;stroke-linecap:round"
        d="M 141.98227153674844,95.72500000000007 L 141.9822715367484,114.77500000000003 L 158.48005547884196,105.25000000000006 "
  />
  <path id="face46-interior"
 style="fill:none;stroke:#0000FF;stroke-width:0.01;stroke-miterlimit:4;stroke-dasharray:none;stroke-linejoin:round;stroke-linecap:round"
        d="M 141.9822715367484,133.82500000000007 L 141.9822715367484,114.77500000000003 M 125.4844875946549,124.30000000000007 "
  />
  <path id="face47-interior"
 style="fill:none;stroke:#0000FF;stroke-width:0.01;stroke-miterlimit:4;stroke-dasharray:none;stroke-linejoin:round;stroke-linecap:round"
        d="M 141.9822715367484,133.82500000000007 M 158.48005547884196,124.30000000000007 L 141.9822715367484,114.77500000000003 "
  />
  <path id="face48-interior"
 style="fill:none;stroke:#0000FF;stroke-width:0.01;stroke-miterlimit:4;stroke-dasharray:none;stroke-linejoin:round;stroke-linecap:round"
        d="M 158.48005547884196,124.30000000000007 M 158.48005547884196,105.25000000000006 M 141.9822715367484,114.77500000000003 "
  />
  <path id="face49-interior"
 style="fill:none;stroke:#0000FF;stroke-width:0.01;stroke-miterlimit:4;stroke-dasharray:none;stroke-linejoin:round;stroke-linecap:round"
        d="M 141.98227153674844,95.72500000000007 M 125.4844875946549,105.25000000000004 M 141.9822715367484,114.77500000000003 "
  />
  <path id="face50-interior"
 style="fill:none;stroke:#0000FF;stroke-width:0.01;stroke-miterlimit:4;stroke-dasharray:none;stroke-linejoin:round;stroke-linecap:round"
        d="M 141.98227153674844,76.67500000000004 M 158.48005547884202,67.15000000000005 M 141.98227153674844,57.625000000000064 L 141.98227153674844,76.67500000000004 "
  />
  <path id="face51-interior"
 style="fill:none;stroke:#0000FF;stroke-width:0.01;stroke-miterlimit:4;stroke-dasharray:none;stroke-linejoin:round;stroke-linecap:round"
        d="M 141.98227153674844,76.67500000000004 M 141.98227153674844,57.625000000000064 M 125.4844875946549,67.15000000000008 "
  />
  <path id="face52-interior"
 style="fill:none;stroke:#0000FF;stroke-width:0.01;stroke-miterlimit:4;stroke-dasharray:none;stroke-linejoin:round;stroke-linecap:round"
        d="M 141.98227153674844,38.575000000000045 M 141.98227153674847,19.525000000000045 M 125.4844875946549,29.050000000000043 L 141.98227153674844,38.575000000000045 "
  />
  <path id="face53-interior"
 style="fill:none;stroke:#0000FF;stroke-width:0.01;stroke-miterlimit:4;stroke-dasharray:none;stroke-linejoin:round;stroke-linecap:round"
        d="M 125.48448759465491,48.100000000000065 M 141.98227153674844,38.575000000000045 M 125.4844875946549,29.050000000000043 L 125.48448759465491,48.100000000000065 "
  />
  <path id="face54-interior"
 style="fill:none;stroke:#0000FF;stroke-width:0.01;stroke-miterlimit:4;stroke-dasharray:none;stroke-linejoin:round;stroke-linecap:round"
        d="M 125.48448759465491,48.100000000000065 M 125.4844875946549,29.050000000000043 L 108.98670365256137,38.57500000000003 L 125.48448759465491,48.100000000000065 "
  />
  <path id="face55-interior"
 style="fill:none;stroke:#0000FF;stroke-width:0.01;stroke-miterlimit:4;stroke-dasharray:none;stroke-linejoin:round;stroke-linecap:round"
        d="M 108.98670365256137,38.57500000000003 L 92.48891971046785,48.100000000000044 L 108.98670365256133,57.62500000000004 L 108.98670365256137,38.57500000000003 "
  />
  <path id="face56-interior"
 style="fill:none;stroke:#0000FF;stroke-width:0.01;stroke-miterlimit:4;stroke-dasharray:none;stroke-linejoin:round;stroke-linecap:round"
        d="M 108.98670365256136,19.525000000000066 L 108.98670365256137,38.57500000000003 M 125.4844875946549,29.050000000000043 "
  />
  <path id="face57-interior"
 style="fill:none;stroke:#0000FF;stroke-width:0.01;stroke-miterlimit:4;stroke-dasharray:none;stroke-linejoin:round;stroke-linecap:round"
        d="M 108.98670365256137,38.57500000000003 M 108.98670365256133,57.62500000000004 L 125.48448759465491,48.100000000000065 "
  />
  <path id="face58-interior"
 style="fill:none;stroke:#0000FF;stroke-width:0.01;stroke-miterlimit:4;stroke-dasharray:none;stroke-linejoin:round;stroke-linecap:round"
        d="M 125.4844875946549,67.15000000000008 M 125.48448759465491,48.100000000000065 M 108.98670365256133,57.62500000000004 L 125.4844875946549,67.15000000000008 "
  />
  <path id="face59-interior"
 style="fill:none;stroke:#0000FF;stroke-width:0.01;stroke-miterlimit:4;stroke-dasharray:none;stroke-linejoin:round;stroke-linecap:round"
        d="M 108.98670365256133,76.67500000000004 L 108.98670365256133,57.62500000000004 L 92.48891971046774,67.15000000000008 L 108.98670365256133,76.67500000000004 "
  />
  <path id="face60-interior"
 style="fill:none;stroke:#0000FF;stroke-width:0.01;stroke-miterlimit:4;stroke-dasharray:none;stroke-linejoin:round;stroke-linecap:round"
        d="M 108.98670365256133,76.67500000000004 M 125.4844875946549,67.15000000000008 M 108.98670365256133,57.62500000000004 "
  />
  <path id="face61-interior"
 style="fill:none;stroke:#0000FF;stroke-width:0.01;stroke-miterlimit:4;stroke-dasharray:none;stroke-linejoin:round;stroke-linecap:round"
        d="M 92.48891971046785,48.100000000000044 L 92.48891971046774,67.15000000000008 M 108.98670365256133,57.62500000000004 "
  />
  <path id="face62-interior"
 style="fill:none;stroke:#0000FF;stroke-width:0.01;stroke-miterlimit:4;stroke-dasharray:none;stroke-linejoin:round;stroke-linecap:round"
        d="M 92.4889197104678,10.000000000000046 M 75.99113576837428,19.525000000000045 L 92.48891971046781,29.050000000000022 L 92.4889197104678,10.000000000000046 "
  />
  <path id="face63-interior"
 style="fill:none;stroke:#0000FF;stroke-width:0.01;stroke-miterlimit:4;stroke-dasharray:none;stroke-linejoin:round;stroke-linecap:round"
        d="M 108.98670365256137,38.57500000000003 M 108.98670365256136,19.525000000000066 L 92.48891971046781,29.050000000000022 L 108.98670365256137,38.57500000000003 "
  />
  <path id="face64-interior"
 style="fill:none;stroke:#0000FF;stroke-width:0.01;stroke-miterlimit:4;stroke-dasharray:none;stroke-linejoin:round;stroke-linecap:round"
        d="M 92.4889197104678,10.000000000000046 M 92.48891971046781,29.050000000000022 M 108.98670365256136,19.525000000000066 "
  />
  <path id="face65-interior"
 style="fill:none;stroke:#0000FF;stroke-width:0.01;stroke-miterlimit:4;stroke-dasharray:none;stroke-linejoin:round;stroke-linecap:round"
        d="M 92.48891971046785,48.100000000000044 M 108.98670365256137,38.57500000000003 M 92.48891971046781,29.050000000000022 L 92.48891971046785,48.100000000000044 "
  />
  <path id="face66-interior"
 style="fill:none;stroke:#0000FF;stroke-width:0.01;stroke-miterlimit:4;stroke-dasharray:none;stroke-linejoin:round;stroke-linecap:round"
        d="M 92.48891971046785,48.100000000000044 M 92.48891971046781,29.050000000000022 L 75.99113576837426,38.575000000000045 L 92.48891971046785,48.100000000000044 "
  />
  <path id="face67-interior"
 style="fill:none;stroke:#0000FF;stroke-width:0.01;stroke-miterlimit:4;stroke-dasharray:none;stroke-linejoin:round;stroke-linecap:round"
        d="M 75.9911357683742,76.67500000000004 L 75.9911357683742,95.72500000000004 L 92.48891971046777,86.20000000000003 L 75.9911357683742,76.67500000000004 "
  />
  <path id="face68-interior"
 style="fill:none;stroke:#0000FF;stroke-width:0.01;stroke-miterlimit:4;stroke-dasharray:none;stroke-linejoin:round;stroke-linecap:round"
        d="M 75.99113576837428,19.525000000000045 L 75.99113576837426,38.575000000000045 M 92.48891971046781,29.050000000000022 "
  />
  <path id="face69-interior"
 style="fill:none;stroke:#0000FF;stroke-width:0.01;stroke-miterlimit:4;stroke-dasharray:none;stroke-linejoin:round;stroke-linecap:round"
        d="M 108.98670365256132,95.72500000000007 M 108.98670365256133,76.67500000000004 L 92.48891971046777,86.20000000000003 L 108.98670365256132,95.72500000000007 "
  />
  <path id="face70-interior"
 style="fill:none;stroke:#0000FF;stroke-width:0.01;stroke-miterlimit:4;stroke-dasharray:none;stroke-linejoin:round;stroke-linecap:round"
        d="M 92.48891971046774,67.15000000000008 L 92.48891971046777,86.20000000000003 M 108.98670365256133,76.67500000000004 "
  />
  <path id="face71-interior"
 style="fill:none;stroke:#0000FF;stroke-width:0.01;stroke-miterlimit:4;stroke-dasharray:none;stroke-linejoin:round;stroke-linecap:round"
        d="M 92.48891971046775,105.25000000000004 M 108.98670365256132,95.72500000000007 M 92.48891971046777,86.20000000000003 L 92.48891971046775,105.25000000000004 "
  />
  <path id="face72-interior"
 style="fill:none;stroke:#0000FF;stroke-width:0.01;stroke-miterlimit:4;stroke-dasharray:none;stroke-linejoin:round;stroke-linecap:round"
        d="M 42.995567884187096,133.82500000000007 L 26.497783942093562,124.30000000000011 M 10.0,133.82500000000007 M 10.0,152.87499999999994 M 26.497783942093562,162.39999999999998 M 42.99556788418711,152.8750000000001 L 42.995567884187096,133.82500000000007 "
  />
  <path id="face73-interior"
 style="fill:none;stroke:#0000FF;stroke-width:0.01;stroke-miterlimit:4;stroke-dasharray:none;stroke-linejoin:round;stroke-linecap:round"
        d="M 92.48891971046774,67.15000000000008 L 75.9911357683742,76.67500000000004 M 92.48891971046777,86.20000000000003 "
  />
  <path id="face74-interior"
 style="fill:none;stroke:#0000FF;stroke-width:0.01;stroke-miterlimit:4;stroke-dasharray:none;stroke-linejoin:round;stroke-linecap:round"
        d="M 92.48891971046775,105.25000000000004 M 92.48891971046777,86.20000000000003 M 75.9911357683742,95.72500000000004 L 92.48891971046775,105.25000000000004 "
  />
  <path id="face75-interior"
 style="fill:none;stroke:#0000FF;stroke-width:0.01;stroke-miterlimit:4;stroke-dasharray:none;stroke-linejoin:round;stroke-linecap:round"
        d="M 59.49335182628067,105.25000000000004 L 42.99556788418708,95.72500000000007 L 26.497783942093562,105.25000000000004 M 26.497783942093562,124.30000000000011 M 42.995567884187096,133.82500000000007 L 59.49335182628067,124.30000000000007 L 59.49335182628067,105.25000000000004 "
  />
  <path id="face76-interior"
 style="fill:none;stroke:#0000FF;stroke-width:0.01;stroke-miterlimit:4;stroke-dasharray:none;stroke-linejoin:round;stroke-linecap:round"
        d="M 42.995567884187096,76.67500000000003 L 26.497783942093562,67.15000000000003 M 10.0,76.67500000000005 M 10.0,95.72500000000004 M 26.497783942093562,105.25000000000004 M 42.99556788418708,95.72500000000007 L 42.995567884187096,76.67500000000003 "
  />
  <path id="face77-interior"
 style="fill:none;stroke:#0000FF;stroke-width:0.01;stroke-miterlimit:4;stroke-dasharray:none;stroke-linejoin:round;stroke-linecap:round"
        d="M 59.4933518262807,48.100000000000044 L 42.99556788418712,38.574999999999996 L 26.49778394209354,48.100000000000044 M 26.497783942093562,67.15000000000003 M 42.995567884187096,76.67500000000003 L 59.49335182628071,67.15000000000003 L 59.4933518262807,48.100000000000044 "
  />
  <path id="face78-interior"
 style="fill:none;stroke:#0000FF;stroke-width:0.01;stroke-miterlimit:4;stroke-dasharray:none;stroke-linejoin:round;stroke-linecap:round"
        d="M 42.99556788418712,19.525000000000045 M 26.497783942093562,10.000000000000046 M 10.0,19.525000000000023 M 10.0,38.57500000000008 M 26.49778394209354,48.100000000000044 M 42.99556788418712,38.574999999999996 L 42.99556788418712,19.525000000000045 "
  />
  <path id="face79-interior"
 style="fill:none;stroke:#0000FF;stroke-width:0.01;stroke-miterlimit:4;stroke-dasharray:none;stroke-linejoin:round;stroke-linecap:round"
        d="M 75.99113576837428,19.525000000000045 M 59.493351826280715,10.000000000000023 M 42.99556788418712,19.525000000000045 M 42.99556788418712,38.574999999999996 M 59.4933518262807,48.100000000000044 L 75.99113576837426,38.575000000000045 "
  />
  <path id="face80-interior"
 style="fill:none;stroke:#0000FF;stroke-width:0.01;stroke-miterlimit:4;stroke-dasharray:none;stroke-linejoin:round;stroke-linecap:round"
        d="M 92.48891971046785,48.100000000000044 M 75.99113576837426,38.575000000000045 M 59.4933518262807,48.100000000000044 M 59.49335182628071,67.15000000000003 L 75.9911357683742,76.67500000000004 M 92.48891971046774,67.15000000000008 "
  />
  <path id="face81-interior"
 style="fill:none;stroke:#0000FF;stroke-width:0.01;stroke-miterlimit:4;stroke-dasharray:none;stroke-linejoin:round;stroke-linecap:round"
        d="M 75.9911357683742,76.67500000000004 M 59.49335182628071,67.15000000000003 M 42.995567884187096,76.67500000000003 M 42.99556788418708,95.72500000000007 M 59.49335182628067,105.25000000000004 L 75.9911357683742,95.72500000000004 "
  />
  <path id="face82-interior"
 style="fill:none;stroke:#0000FF;stroke-width:0.01;stroke-miterlimit:4;stroke-dasharray:none;stroke-linejoin:round;stroke-linecap:round"
        d="M 75.99113576837424,133.82500000000007 L 59.49335182628067,124.30000000000007 M 42.995567884187096,133.82500000000007 M 42.99556788418711,152.8750000000001 M 59.4933518262807,162.4 M 75.99113576837424,152.87500000000003 "
  />
  <path id="face83-interior"
 style="fill:none;stroke:#0000FF;stroke-width:0.01;stroke-miterlimit:4;stroke-dasharray:none;stroke-linejoin:round;stroke-linecap:round"
        d="M 92.48891971046775,105.25000000000004 M 75.9911357683742,95.72500000000004 M 59.49335182628067,105.25000000000004 M 59.49335182628067,124.30000000000007 M 75.99113576837424,133.82500000000007 M 92.4889197104678,124.30000000000001 "
  />
  <path id="face0-interior"
 style="fill:none;stroke:#0000FF;stroke-width:0.01;stroke-miterlimit:4;stroke-dasharray:none;stroke-linejoin:round;stroke-linecap:round"
        d="M 141.9822715367484,133.82500000000007 M 141.9822715367484,152.87500000000009 M 158.48005547884196,143.35000000000005 "
  />
  <path id="face1-interior"
 style="fill:none;stroke:#0000FF;stroke-width:0.01;stroke-miterlimit:4;stroke-dasharray:none;stroke-linejoin:round;stroke-linecap:round"
        d="M 174.9778394209356,76.67500000000004 M 174.97783942093548,57.62500000000014 M 158.48005547884202,67.15000000000005 "
  />
  <path id="face2-interior"
 style="fill:none;stroke:#0000FF;stroke-width:0.01;stroke-miterlimit:4;stroke-dasharray:none;stroke-linejoin:round;stroke-linecap:round"
        d="M 158.48005547884196,162.40000000000006 M 174.97783942093554,152.87500000000006 M 158.48005547884196,143.35000000000005 "
  />
  <path id="face3-interior"
 style="fill:none;stroke:#0000FF;stroke-width:0.01;stroke-miterlimit:4;stroke-dasharray:none;stroke-linejoin:round;stroke-linecap:round"
        d="M 174.9778394209356,76.67500000000004 M 158.48005547884202,67.15000000000005 M 141.98227153674844,76.67500000000004 M 141.98227153674844,95.72500000000007 M 158.48005547884196,105.25000000000006 M 174.9778394209356,95.72500000000002 "
  />
  <path id="face4-interior"
 style="fill:none;stroke:#0000FF;stroke-width:0.01;stroke-miterlimit:4;stroke-dasharray:none;stroke-linejoin:round;stroke-linecap:round"
        d="M 158.48005547884196,162.40000000000006 M 158.48005547884196,143.35000000000005 M 141.9822715367484,152.87500000000009 "
  />
  <path id="face5-interior"
 style="fill:none;stroke:#0000FF;stroke-width:0.01;stroke-miterlimit:4;stroke-dasharray:none;stroke-linejoin:round;stroke-linecap:round"
        d="M 141.98227153674844,38.575000000000045 M 141.98227153674844,57.625000000000064 M 158.48005547884202,48.10000000000008 "
  />
  <path id="face6-interior"
 style="fill:none;stroke:#0000FF;stroke-width:0.01;stroke-miterlimit:4;stroke-dasharray:none;stroke-linejoin:round;stroke-linecap:round"
        d="M 141.98227153674844,38.575000000000045 M 125.48448759465491,48.100000000000065 M 141.98227153674844,57.625000000000064 "
  />
  <path id="face7-interior"
 style="fill:none;stroke:#0000FF;stroke-width:0.01;stroke-miterlimit:4;stroke-dasharray:none;stroke-linejoin:round;stroke-linecap:round"
        d="M 125.48448759465491,48.100000000000065 M 125.4844875946549,67.15000000000008 M 141.98227153674844,57.625000000000064 "
  />
  <path id="face8-interior"
 style="fill:none;stroke:#0000FF;stroke-width:0.01;stroke-miterlimit:4;stroke-dasharray:none;stroke-linejoin:round;stroke-linecap:round"
        d="M 158.48005547884202,67.15000000000005 M 158.48005547884202,48.10000000000008 M 141.98227153674844,57.625000000000064 "
  />
  <path id="face9-interior"
 style="fill:none;stroke:#0000FF;stroke-width:0.01;stroke-miterlimit:4;stroke-dasharray:none;stroke-linejoin:round;stroke-linecap:round"
        d="M 174.97783942093554,19.525000000000045 M 158.48005547884202,10.0 M 141.98227153674847,19.525000000000045 M 141.98227153674844,38.575000000000045 M 158.48005547884202,48.10000000000008 M 174.97783942093548,38.57500000000003 "
  />
  <path id="face10-interior"
 style="fill:none;stroke:#0000FF;stroke-width:0.01;stroke-miterlimit:4;stroke-dasharray:none;stroke-linejoin:round;stroke-linecap:round"
        d="M 174.97783942093554,133.82500000000007 M 174.97783942093554,114.77500000000006 M 158.48005547884196,124.30000000000007 "
  />
  <path id="face11-interior"
 style="fill:none;stroke:#0000FF;stroke-width:0.01;stroke-miterlimit:4;stroke-dasharray:none;stroke-linejoin:round;stroke-linecap:round"
        d="M 174.97783942093554,114.77500000000006 M 174.9778394209356,95.72500000000002 M 158.48005547884196,105.25000000000006 "
  />
  <path id="face12-interior"
 style="fill:none;stroke:#0000FF;stroke-width:0.01;stroke-miterlimit:4;stroke-dasharray:none;stroke-linejoin:round;stroke-linecap:round"
        d="M 158.48005547884202,48.10000000000008 M 158.48005547884202,67.15000000000005 M 174.97783942093548,57.62500000000014 "
  />
  <path id="face13-interior"
 style="fill:none;stroke:#0000FF;stroke-width:0.01;stroke-miterlimit:4;stroke-dasharray:none;stroke-linejoin:round;stroke-linecap:round"
        d="M 174.97783942093548,38.57500000000003 M 158.48005547884202,48.10000000000008 M 174.97783942093548,57.62500000000014 "
  />
  <path id="face14-interior"
 style="fill:none;stroke:#0000FF;stroke-width:0.01;stroke-miterlimit:4;stroke-dasharray:none;stroke-linejoin:round;stroke-linecap:round"
        d="M 158.48005547884196,105.25000000000006 M 158.48005547884196,124.30000000000007 M 174.97783942093554,114.77500000000006 "
  />
  <path id="face15-interior"
 style="fill:none;stroke:#0000FF;stroke-width:0.01;stroke-miterlimit:4;stroke-dasharray:none;stroke-linejoin:round;stroke-linecap:round"
        d="M 158.48005547884196,124.30000000000007 M 141.9822715367484,133.82500000000007 M 158.48005547884196,143.35000000000005 "
  />
  <path id="face16-interior"
 style="fill:none;stroke:#0000FF;stroke-width:0.01;stroke-miterlimit:4;stroke-dasharray:none;stroke-linejoin:round;stroke-linecap:round"
        d="M 158.48005547884196,124.30000000000007 M 158.48005547884196,143.35000000000005 M 174.97783942093554,133.82500000000007 "
  />
  <path id="face17-interior"
 style="fill:none;stroke:#0000FF;stroke-width:0.01;stroke-miterlimit:4;stroke-dasharray:none;stroke-linejoin:round;stroke-linecap:round"
        d="M 174.97783942093554,152.87500000000006 M 174.97783942093554,133.82500000000007 M 158.48005547884196,143.35000000000005 "
  />
  <path id="face18-interior"
 style="fill:none;stroke:#0000FF;stroke-width:0.01;stroke-miterlimit:4;stroke-dasharray:none;stroke-linejoin:round;stroke-linecap:round"
        d="M 125.48448759465491,10.000000000000046 M 125.4844875946549,29.050000000000043 M 141.98227153674847,19.525000000000045 "
  />
  <path id="face19-interior"
 style="fill:none;stroke:#0000FF;stroke-width:0.01;stroke-miterlimit:4;stroke-dasharray:none;stroke-linejoin:round;stroke-linecap:round"
        d="M 125.48448759465491,10.000000000000046 M 108.98670365256136,19.525000000000066 M 125.4844875946549,29.050000000000043 "
  />
  <path id="face20-interior"
 style="fill:none;stroke:#0000FF;stroke-width:0.01;stroke-miterlimit:4;stroke-dasharray:none;stroke-linejoin:round;stroke-linecap:round"
        d="M 108.98670365256133,76.67500000000004 M 108.98670365256132,95.72500000000007 M 125.4844875946549,86.20000000000006 "
  />
  <path id="face21-interior"
 style="fill:none;stroke:#0000FF;stroke-width:0.01;stroke-miterlimit:4;stroke-dasharray:none;stroke-linejoin:round;stroke-linecap:round"
        d="M 125.4844875946549,105.25000000000004 M 125.4844875946549,86.20000000000006 M 108.98670365256132,95.72500000000007 "
  />
  <path id="face22-interior"
 style="fill:none;stroke:#0000FF;stroke-width:0.01;stroke-miterlimit:4;stroke-dasharray:none;stroke-linejoin:round;stroke-linecap:round"
        d="M 125.4844875946549,105.25000000000004 M 141.98227153674844,95.72500000000007 M 125.4844875946549,86.20000000000006 "
  />
  <path id="face23-interior"
 style="fill:none;stroke:#0000FF;stroke-width:0.01;stroke-miterlimit:4;stroke-dasharray:none;stroke-linejoin:round;stroke-linecap:round"
        d="M 141.98227153674844,95.72500000000007 M 141.98227153674844,76.67500000000004 M 125.4844875946549,86.20000000000006 "
  />
  <path id="face24-interior"
 style="fill:none;stroke:#0000FF;stroke-width:0.01;stroke-miterlimit:4;stroke-dasharray:none;stroke-linejoin:round;stroke-linecap:round"
        d="M 125.4844875946549,67.15000000000008 M 125.4844875946549,86.20000000000006 M 141.98227153674844,76.67500000000004 "
  />
  <path id="face25-interior"
 style="fill:none;stroke:#0000FF;stroke-width:0.01;stroke-miterlimit:4;stroke-dasharray:none;stroke-linejoin:round;stroke-linecap:round"
        d="M 125.4844875946549,67.15000000000008 M 108.98670365256133,76.67500000000004 M 125.4844875946549,86.20000000000006 "
  />
  <path id="face26-interior"
 style="fill:none;stroke:#0000FF;stroke-width:0.01;stroke-miterlimit:4;stroke-dasharray:none;stroke-linejoin:round;stroke-linecap:round"
        d="M 92.48891971046775,105.25000000000004 M 92.4889197104678,124.30000000000001 M 108.98670365256132,114.77500000000003 "
  />
  <path id="face27-interior"
 style="fill:none;stroke:#0000FF;stroke-width:0.01;stroke-miterlimit:4;stroke-dasharray:none;stroke-linejoin:round;stroke-linecap:round"
        d="M 108.98670365256133,133.82500000000007 M 108.98670365256132,114.77500000000003 M 92.4889197104678,124.30000000000001 "
  />
  <path id="face28-interior"
 style="fill:none;stroke:#0000FF;stroke-width:0.01;stroke-miterlimit:4;stroke-dasharray:none;stroke-linejoin:round;stroke-linecap:round"
        d="M 108.98670365256133,133.82500000000007 M 125.4844875946549,124.30000000000007 M 108.98670365256132,114.77500000000003 "
  />
  <path id="face29-interior"
 style="fill:none;stroke:#0000FF;stroke-width:0.01;stroke-miterlimit:4;stroke-dasharray:none;stroke-linejoin:round;stroke-linecap:round"
        d="M 125.4844875946549,124.30000000000007 M 125.4844875946549,105.25000000000004 M 108.98670365256132,114.77500000000003 "
  />
  <path id="face30-interior"
 style="fill:none;stroke:#0000FF;stroke-width:0.01;stroke-miterlimit:4;stroke-dasharray:none;stroke-linejoin:round;stroke-linecap:round"
        d="M 108.98670365256132,95.72500000000007 M 108.98670365256132,114.77500000000003 M 125.4844875946549,105.25000000000004 "
  />
  <path id="face31-interior"
 style="fill:none;stroke:#0000FF;stroke-width:0.01;stroke-miterlimit:4;stroke-dasharray:none;stroke-linejoin:round;stroke-linecap:round"
        d="M 108.98670365256132,95.72500000000007 M 92.48891971046775,105.25000000000004 M 108.98670365256132,114.77500000000003 "
  />
  <path id="face32-interior"
 style="fill:none;stroke:#0000FF;stroke-width:0.01;stroke-miterlimit:4;stroke-dasharray:none;stroke-linejoin:round;stroke-linecap:round"
        d="M 75.99113576837424,133.82500000000007 M 75.99113576837424,152.87500000000003 M 92.48891971046775,143.35000000000002 "
  />
  <path id="face33-interior"
 style="fill:none;stroke:#0000FF;stroke-width:0.01;stroke-miterlimit:4;stroke-dasharray:none;stroke-linejoin:round;stroke-linecap:round"
        d="M 92.48891971046774,162.4 M 92.48891971046775,143.35000000000002 M 75.99113576837424,152.87500000000003 "
  />
  <path id="face34-interior"
 style="fill:none;stroke:#0000FF;stroke-width:0.01;stroke-miterlimit:4;stroke-dasharray:none;stroke-linejoin:round;stroke-linecap:round"
        d="M 92.48891971046774,162.4 M 108.98670365256132,152.87500000000009 M 92.48891971046775,143.35000000000002 "
  />
  <path id="face35-interior"
 style="fill:none;stroke:#0000FF;stroke-width:0.01;stroke-miterlimit:4;stroke-dasharray:none;stroke-linejoin:round;stroke-linecap:round"
        d="M 108.98670365256132,152.87500000000009 M 108.98670365256133,133.82500000000007 M 92.48891971046775,143.35000000000002 "
  />
  <path id="face36-interior"
 style="fill:none;stroke:#0000FF;stroke-width:0.01;stroke-miterlimit:4;stroke-dasharray:none;stroke-linejoin:round;stroke-linecap:round"
        d="M 92.4889197104678,124.30000000000001 M 92.48891971046775,143.35000000000002 M 108.98670365256133,133.82500000000007 "
  />
  <path id="face37-interior"
 style="fill:none;stroke:#0000FF;stroke-width:0.01;stroke-miterlimit:4;stroke-dasharray:none;stroke-linejoin:round;stroke-linecap:round"
        d="M 92.4889197104678,124.30000000000001 M 75.99113576837424,133.82500000000007 M 92.48891971046775,143.35000000000002 "
  />
  <path id="face38-interior"
 style="fill:none;stroke:#0000FF;stroke-width:0.01;stroke-miterlimit:4;stroke-dasharray:none;stroke-linejoin:round;stroke-linecap:round"
        d="M 125.4844875946549,124.30000000000007 M 125.48448759465485,143.35000000000005 M 141.9822715367484,133.82500000000007 "
  />
  <path id="face39-interior"
 style="fill:none;stroke:#0000FF;stroke-width:0.01;stroke-miterlimit:4;stroke-dasharray:none;stroke-linejoin:round;stroke-linecap:round"
        d="M 125.4844875946549,124.30000000000007 M 108.98670365256133,133.82500000000007 M 125.48448759465485,143.35000000000005 "
  />
  <path id="face40-interior"
 style="fill:none;stroke:#0000FF;stroke-width:0.01;stroke-miterlimit:4;stroke-dasharray:none;stroke-linejoin:round;stroke-linecap:round"
        d="M 108.98670365256133,133.82500000000007 M 108.98670365256132,152.87500000000009 M 125.48448759465485,143.35000000000005 "
  />
  <path id="face41-interior"
 style="fill:none;stroke:#0000FF;stroke-width:0.01;stroke-miterlimit:4;stroke-dasharray:none;stroke-linejoin:round;stroke-linecap:round"
        d="M 125.48448759465485,162.4000000000001 M 125.48448759465485,143.35000000000005 M 108.98670365256132,152.87500000000009 "
  />
  <path id="face42-interior"
 style="fill:none;stroke:#0000FF;stroke-width:0.01;stroke-miterlimit:4;stroke-dasharray:none;stroke-linejoin:round;stroke-linecap:round"
        d="M 125.48448759465485,162.4000000000001 M 141.9822715367484,152.87500000000009 M 125.48448759465485,143.35000000000005 "
  />
  <path id="face43-interior"
 style="fill:none;stroke:#0000FF;stroke-width:0.01;stroke-miterlimit:4;stroke-dasharray:none;stroke-linejoin:round;stroke-linecap:round"
        d="M 141.9822715367484,152.87500000000009 M 141.9822715367484,133.82500000000007 M 125.48448759465485,143.35000000000005 "
  />
  <path id="face44-interior"
 style="fill:none;stroke:#0000FF;stroke-width:0.01;stroke-miterlimit:4;stroke-dasharray:none;stroke-linejoin:round;stroke-linecap:round"
        d="M 125.4844875946549,105.25000000000004 M 125.4844875946549,124.30000000000007 M 141.9822715367484,114.77500000000003 "
  />
  <path id="face45-interior"
 style="fill:none;stroke:#0000FF;stroke-width:0.01;stroke-miterlimit:4;stroke-dasharray:none;stroke-linejoin:round;stroke-linecap:round"
        d="M 141.98227153674844,95.72500000000007 M 141.9822715367484,114.77500000000003 M 158.48005547884196,105.25000000000006 "
  />
  <path id="face46-interior"
 style="fill:none;stroke:#0000FF;stroke-width:0.01;stroke-miterlimit:4;stroke-dasharray:none;stroke-linejoin:round;stroke-linecap:round"
        d="M 141.9822715367484,133.82500000000007 M 141.9822715367484,114.77500000000003 M 125.4844875946549,124.30000000000007 "
  />
  <path id="face47-interior"
 style="fill:none;stroke:#0000FF;stroke-width:0.01;stroke-miterlimit:4;stroke-dasharray:none;stroke-linejoin:round;stroke-linecap:round"
        d="M 141.9822715367484,133.82500000000007 M 158.48005547884196,124.30000000000007 M 141.9822715367484,114.77500000000003 "
  />
  <path id="face48-interior"
 style="fill:none;stroke:#0000FF;stroke-width:0.01;stroke-miterlimit:4;stroke-dasharray:none;stroke-linejoin:round;stroke-linecap:round"
        d="M 158.48005547884196,124.30000000000007 M 158.48005547884196,105.25000000000006 M 141.9822715367484,114.77500000000003 "
  />
  <path id="face49-interior"
 style="fill:none;stroke:#0000FF;stroke-width:0.01;stroke-miterlimit:4;stroke-dasharray:none;stroke-linejoin:round;stroke-linecap:round"
        d="M 141.98227153674844,95.72500000000007 M 125.4844875946549,105.25000000000004 M 141.9822715367484,114.77500000000003 "
  />
  <path id="face50-interior"
 style="fill:none;stroke:#0000FF;stroke-width:0.01;stroke-miterlimit:4;stroke-dasharray:none;stroke-linejoin:round;stroke-linecap:round"
        d="M 141.98227153674844,76.67500000000004 M 158.48005547884202,67.15000000000005 M 141.98227153674844,57.625000000000064 "
  />
  <path id="face51-interior"
 style="fill:none;stroke:#0000FF;stroke-width:0.01;stroke-miterlimit:4;stroke-dasharray:none;stroke-linejoin:round;stroke-linecap:round"
        d="M 141.98227153674844,76.67500000000004 M 141.98227153674844,57.625000000000064 M 125.4844875946549,67.15000000000008 "
  />
  <path id="face52-interior"
 style="fill:none;stroke:#0000FF;stroke-width:0.01;stroke-miterlimit:4;stroke-dasharray:none;stroke-linejoin:round;stroke-linecap:round"
        d="M 141.98227153674844,38.575000000000045 M 141.98227153674847,19.525000000000045 M 125.4844875946549,29.050000000000043 "
  />
  <path id="face53-interior"
 style="fill:none;stroke:#0000FF;stroke-width:0.01;stroke-miterlimit:4;stroke-dasharray:none;stroke-linejoin:round;stroke-linecap:round"
        d="M 125.48448759465491,48.100000000000065 M 141.98227153674844,38.575000000000045 M 125.4844875946549,29.050000000000043 "
  />
  <path id="face54-interior"
 style="fill:none;stroke:#0000FF;stroke-width:0.01;stroke-miterlimit:4;stroke-dasharray:none;stroke-linejoin:round;stroke-linecap:round"
        d="M 125.48448759465491,48.100000000000065 M 125.4844875946549,29.050000000000043 M 108.98670365256137,38.57500000000003 "
  />
  <path id="face55-interior"
 style="fill:none;stroke:#0000FF;stroke-width:0.01;stroke-miterlimit:4;stroke-dasharray:none;stroke-linejoin:round;stroke-linecap:round"
        d="M 108.98670365256137,38.57500000000003 M 92.48891971046785,48.100000000000044 M 108.98670365256133,57.62500000000004 "
  />
  <path id="face56-interior"
 style="fill:none;stroke:#0000FF;stroke-width:0.01;stroke-miterlimit:4;stroke-dasharray:none;stroke-linejoin:round;stroke-linecap:round"
        d="M 108.98670365256136,19.525000000000066 M 108.98670365256137,38.57500000000003 M 125.4844875946549,29.050000000000043 "
  />
  <path id="face57-interior"
 style="fill:none;stroke:#0000FF;stroke-width:0.01;stroke-miterlimit:4;stroke-dasharray:none;stroke-linejoin:round;stroke-linecap:round"
        d="M 108.98670365256137,38.57500000000003 M 108.98670365256133,57.62500000000004 M 125.48448759465491,48.100000000000065 "
  />
  <path id="face58-interior"
 style="fill:none;stroke:#0000FF;stroke-width:0.01;stroke-miterlimit:4;stroke-dasharray:none;stroke-linejoin:round;stroke-linecap:round"
        d="M 125.4844875946549,67.15000000000008 M 125.48448759465491,48.100000000000065 M 108.98670365256133,57.62500000000004 "
  />
  <path id="face59-interior"
 style="fill:none;stroke:#0000FF;stroke-width:0.01;stroke-miterlimit:4;stroke-dasharray:none;stroke-linejoin:round;stroke-linecap:round"
        d="M 108.98670365256133,76.67500000000004 M 108.98670365256133,57.62500000000004 M 92.48891971046774,67.15000000000008 "
  />
  <path id="face60-interior"
 style="fill:none;stroke:#0000FF;stroke-width:0.01;stroke-miterlimit:4;stroke-dasharray:none;stroke-linejoin:round;stroke-linecap:round"
        d="M 108.98670365256133,76.67500000000004 M 125.4844875946549,67.15000000000008 M 108.98670365256133,57.62500000000004 "
  />
  <path id="face61-interior"
 style="fill:none;stroke:#0000FF;stroke-width:0.01;stroke-miterlimit:4;stroke-dasharray:none;stroke-linejoin:round;stroke-linecap:round"
        d="M 92.48891971046785,48.100000000000044 M 92.48891971046774,67.15000000000008 M 108.98670365256133,57.62500000000004 "
  />
  <path id="face62-interior"
 style="fill:none;stroke:#0000FF;stroke-width:0.01;stroke-miterlimit:4;stroke-dasharray:none;stroke-linejoin:round;stroke-linecap:round"
        d="M 92.4889197104678,10.000000000000046 M 75.99113576837428,19.525000000000045 M 92.48891971046781,29.050000000000022 "
  />
  <path id="face63-interior"
 style="fill:none;stroke:#0000FF;stroke-width:0.01;stroke-miterlimit:4;stroke-dasharray:none;stroke-linejoin:round;stroke-linecap:round"
        d="M 108.98670365256137,38.57500000000003 M 108.98670365256136,19.525000000000066 M 92.48891971046781,29.050000000000022 "
  />
  <path id="face64-interior"
 style="fill:none;stroke:#0000FF;stroke-width:0.01;stroke-miterlimit:4;stroke-dasharray:none;stroke-linejoin:round;stroke-linecap:round"
        d="M 92.4889197104678,10.000000000000046 M 92.48891971046781,29.050000000000022 M 108.98670365256136,19.525000000000066 "
  />
  <path id="face65-interior"
 style="fill:none;stroke:#0000FF;stroke-width:0.01;stroke-miterlimit:4;stroke-dasharray:none;stroke-linejoin:round;stroke-linecap:round"
        d="M 92.48891971046785,48.100000000000044 M 108.98670365256137,38.57500000000003 M 92.48891971046781,29.050000000000022 "
  />
  <path id="face66-interior"
 style="fill:none;stroke:#0000FF;stroke-width:0.01;stroke-miterlimit:4;stroke-dasharray:none;stroke-linejoin:round;stroke-linecap:round"
        d="M 92.48891971046785,48.100000000000044 M 92.48891971046781,29.050000000000022 M 75.99113576837426,38.575000000000045 "
  />
  <path id="face67-interior"
 style="fill:none;stroke:#0000FF;stroke-width:0.01;stroke-miterlimit:4;stroke-dasharray:none;stroke-linejoin:round;stroke-linecap:round"
        d="M 75.9911357683742,76.67500000000004 M 75.9911357683742,95.72500000000004 M 92.48891971046777,86.20000000000003 "
  />
  <path id="face68-interior"
 style="fill:none;stroke:#0000FF;stroke-width:0.01;stroke-miterlimit:4;stroke-dasharray:none;stroke-linejoin:round;stroke-linecap:round"
        d="M 75.99113576837428,19.525000000000045 M 75.99113576837426,38.575000000000045 M 92.48891971046781,29.050000000000022 "
  />
  <path id="face69-interior"
 style="fill:none;stroke:#0000FF;stroke-width:0.01;stroke-miterlimit:4;stroke-dasharray:none;stroke-linejoin:round;stroke-linecap:round"
        d="M 108.98670365256132,95.72500000000007 M 108.98670365256133,76.67500000000004 M 92.48891971046777,86.20000000000003 "
  />
  <path id="face70-interior"
 style="fill:none;stroke:#0000FF;stroke-width:0.01;stroke-miterlimit:4;stroke-dasharray:none;stroke-linejoin:round;stroke-linecap:round"
        d="M 92.48891971046774,67.15000000000008 M 92.48891971046777,86.20000000000003 M 108.98670365256133,76.67500000000004 "
  />
  <path id="face71-interior"
 style="fill:none;stroke:#0000FF;stroke-width:0.01;stroke-miterlimit:4;stroke-dasharray:none;stroke-linejoin:round;stroke-linecap:round"
        d="M 92.48891971046775,105.25000000000004 M 108.98670365256132,95.72500000000007 M 92.48891971046777,86.20000000000003 "
  />
  <path id="face72-interior"
 style="fill:none;stroke:#0000FF;stroke-width:0.01;stroke-miterlimit:4;stroke-dasharray:none;stroke-linejoin:round;stroke-linecap:round"
        d="M 42.995567884187096,133.82500000000007 M 26.497783942093562,124.30000000000011 M 10.0,133.82500000000007 M 10.0,152.87499999999994 M 26.497783942093562,162.39999999999998 M 42.99556788418711,152.8750000000001 "
  />
  <path id="face73-interior"
 style="fill:none;stroke:#0000FF;stroke-width:0.01;stroke-miterlimit:4;stroke-dasharray:none;stroke-linejoin:round;stroke-linecap:round"
        d="M 92.48891971046774,67.15000000000008 M 75.9911357683742,76.67500000000004 M 92.48891971046777,86.20000000000003 "
  />
  <path id="face74-interior"
 style="fill:none;stroke:#0000FF;stroke-width:0.01;stroke-miterlimit:4;stroke-dasharray:none;stroke-linejoin:round;stroke-linecap:round"
        d="M 92.48891971046775,105.25000000000004 M 92.48891971046777,86.20000000000003 M 75.9911357683742,95.72500000000004 "
  />
  <path id="face75-interior"
 style="fill:none;stroke:#0000FF;stroke-width:0.01;stroke-miterlimit:4;stroke-dasharray:none;stroke-linejoin:round;stroke-linecap:round"
        d="M 59.49335182628067,105.25000000000004 M 42.99556788418708,95.72500000000007 M 26.497783942093562,105.25000000000004 M 26.497783942093562,124.30000000000011 M 42.995567884187096,133.82500000000007 M 59.49335182628067,124.30000000000007 "
  />
  <path id="face76-interior"
 style="fill:none;stroke:#0000FF;stroke-width:0.01;stroke-miterlimit:4;stroke-dasharray:none;stroke-linejoin:round;stroke-linecap:round"
        d="M 42.995567884187096,76.67500000000003 M 26.497783942093562,67.15000000000003 M 10.0,76.67500000000005 M 10.0,95.72500000000004 M 26.497783942093562,105.25000000000004 M 42.99556788418708,95.72500000000007 "
  />
  <path id="face77-interior"
 style="fill:none;stroke:#0000FF;stroke-width:0.01;stroke-miterlimit:4;stroke-dasharray:none;stroke-linejoin:round;stroke-linecap:round"
        d="M 59.4933518262807,48.100000000000044 M 42.99556788418712,38.574999999999996 M 26.49778394209354,48.100000000000044 M 26.497783942093562,67.15000000000003 M 42.995567884187096,76.67500000000003 M 59.49335182628071,67.15000000000003 "
  />
  <path id="face78-interior"
 style="fill:none;stroke:#0000FF;stroke-width:0.01;stroke-miterlimit:4;stroke-dasharray:none;stroke-linejoin:round;stroke-linecap:round"
        d="M 42.99556788418712,19.525000000000045 M 26.497783942093562,10.000000000000046 M 10.0,19.525000000000023 M 10.0,38.57500000000008 M 26.49778394209354,48.100000000000044 M 42.99556788418712,38.574999999999996 "
  />
  <path id="face79-interior"
 style="fill:none;stroke:#0000FF;stroke-width:0.01;stroke-miterlimit:4;stroke-dasharray:none;stroke-linejoin:round;stroke-linecap:round"
        d="M 75.99113576837428,19.525000000000045 M 59.493351826280715,10.000000000000023 M 42.99556788418712,19.525000000000045 M 42.99556788418712,38.574999999999996 M 59.4933518262807,48.100000000000044 M 75.99113576837426,38.575000000000045 "
  />
  <path id="face80-interior"
 style="fill:none;stroke:#0000FF;stroke-width:0.01;stroke-miterlimit:4;stroke-dasharray:none;stroke-linejoin:round;stroke-linecap:round"
        d="M 92.48891971046785,48.100000000000044 M 75.99113576837426,38.575000000000045 M 59.4933518262807,48.100000000000044 M 59.49335182628071,67.15000000000003 M 75.9911357683742,76.67500000000004 M 92.48891971046774,67.15000000000008 "
  />
  <path id="face81-interior"
 style="fill:none;stroke:#0000FF;stroke-width:0.01;stroke-miterlimit:4;stroke-dasharray:none;stroke-linejoin:round;stroke-linecap:round"
        d="M 75.9911357683742,76.67500000000004 M 59.49335182628071,67.15000000000003 M 42.995567884187096,76.67500000000003 M 42.99556788418708,95.72500000000007 M 59.49335182628067,105.25000000000004 M 75.9911357683742,95.72500000000004 "
  />
  <path id="face82-interior"
 style="fill:none;stroke:#0000FF;stroke-width:0.01;stroke-miterlimit:4;stroke-dasharray:none;stroke-linejoin:round;stroke-linecap:round"
        d="M 75.99113576837424,133.82500000000007 M 59.49335182628067,124.30000000000007 M 42.995567884187096,133.82500000000007 M 42.99556788418711,152.8750000000001 M 59.4933518262807,162.4 M 75.99113576837424,152.87500000000003 "
  />
  <path id="face83-interior"
 style="fill:none;stroke:#0000FF;stroke-width:0.01;stroke-miterlimit:4;stroke-dasharray:none;stroke-linejoin:round;stroke-linecap:round"
        d="M 92.48891971046775,105.25000000000004 M 75.9911357683742,95.72500000000004 M 59.49335182628067,105.25000000000004 M 59.49335182628067,124.30000000000007 M 75.99113576837424,133.82500000000007 M 92.4889197104678,124.30000000000001 "
  />
</svg>
